<svg width="407" height="48" viewBox="0 0 407 48" fill="none" xmlns="http://www.w3.org/2000/svg">
<path d="M197.24 4C198.52 4 199.59 4.46 200.49 5.38C201.39 6.3 201.84 7.4 201.84 8.69C201.84 9.98 201.39 11.1 200.5 12C199.6 12.9 198.51 13.36 197.23 13.36C195.95 13.36 194.8 12.91 193.89 12C192.99 11.1 192.54 9.99 192.54 8.69H192.55C192.55 7.4 193.01 6.29 193.92 5.38C194.84 4.46 195.94 4 197.22 4M14.7999 6.65C15.3399 6.65 15.7199 6.77 15.9399 7.02C16.1499 7.27 16.2598 7.74 16.2598 8.44V14.85C16.2598 14.85 16.2599 14.85 16.2499 14.85V14.87L16.2598 14.84C16.9298 14.76 17.4598 14.48 17.8298 14C18.2098 13.53 18.3998 12.9 18.3998 12.12C18.3998 11.45 18.1999 10.69 17.8099 9.86C17.4199 9.03 17.2299 8.52 17.2299 8.33C17.2299 7.9 17.3599 7.56 17.6199 7.29C17.8799 7.02 18.2099 6.89 18.6299 6.89C19.3999 6.89 20.0998 7.43 20.7198 8.51C21.3398 9.59 21.6498 10.85 21.6498 12.31C21.6498 14.08 21.0498 15.56 19.8298 16.76C18.6198 17.94 17.0998 18.55 15.2698 18.55C13.4398 18.55 11.9099 17.97 10.6799 16.82C9.44987 15.66 8.84985 14.23 8.84985 12.5C8.84985 10.77 9.42983 9.45 10.5798 8.32C11.7298 7.2 13.1399 6.64 14.7999 6.64M13.8898 14.9V10.14C13.2898 10.19 12.7799 10.44 12.3599 10.87C11.9499 11.32 11.7399 11.85 11.7399 12.47C11.7399 13.09 11.9298 13.61 12.3198 14.04C12.7098 14.48 13.2299 14.76 13.8799 14.89M40.8599 6.67C42.8199 6.67 44.2999 6.99 45.2999 7.64C46.2799 8.29 46.7798 9.27 46.7798 10.6C46.7798 11.93 46.2899 12.85 45.3099 13.49C44.3299 14.13 42.8499 14.45 40.8599 14.45H34.0898V20.98H39.9199C41.9099 20.98 43.3899 21.3 44.3699 21.94C45.3499 22.58 45.8398 23.55 45.8398 24.85C45.8398 26.15 45.3499 27.12 44.3699 27.75C43.3899 28.38 41.9099 28.7 39.9199 28.7H34.0898V35.56H41.1099C43.1099 35.56 44.5998 35.88 45.5698 36.52C46.5398 37.16 47.0298 38.12 47.0298 39.41C47.0298 40.7 46.5398 41.69 45.5698 42.32C44.5998 42.96 43.1199 43.28 41.1099 43.28H31.4199C29.2699 43.28 27.7899 42.91 26.9799 42.18C26.1799 41.45 25.7698 40.06 25.7698 38.03V12.54C25.7698 10.32 26.1999 8.78 27.0499 7.94C27.8999 7.1 29.3898 6.69 31.5098 6.69H40.8599M151.71 6.78C153.08 6.78 154.06 7.27 154.73 8.24C155.4 9.21 155.72 10.69 155.72 12.69V16.26H156.42C158.03 16.26 159.27 16.58 160.17 17.22C161.06 17.86 161.51 18.73 161.51 19.86C161.51 20.99 161.08 21.88 160.22 22.47C159.36 23.06 158.08 23.35 156.37 23.35H155.72V37.73C155.72 39.74 155.39 41.23 154.74 42.19C154.09 43.15 153.08 43.63 151.71 43.63C150.34 43.63 149.32 43.14 148.66 42.17C147.99 41.2 147.65 39.72 147.65 37.72V23.34L147.35 23.35C145.93 23.35 144.82 23.04 144 22.4C143.2 21.77 142.78 20.92 142.78 19.84C142.78 18.76 143.18 17.88 144 17.27C144.8 16.67 146.02 16.32 147.64 16.24V12.67C147.64 10.67 147.97 9.19 148.65 8.22C149.31 7.25 150.33 6.76 151.7 6.76M85.0798 6.76C86.4398 6.76 87.4299 7.25 88.0999 8.22C88.7699 9.19 89.0898 10.67 89.0898 12.67V16.24H89.7899C91.3899 16.24 92.6398 16.56 93.5298 17.2C94.4198 17.84 94.8699 18.71 94.8699 19.84C94.8699 20.97 94.4398 21.86 93.5798 22.45C92.7198 23.04 91.4399 23.33 89.7299 23.33H89.0798V37.71C89.0798 39.72 88.7499 41.21 88.0999 42.17C87.4499 43.13 86.4398 43.61 85.0698 43.61C83.6998 43.61 82.6798 43.12 82.0198 42.15C81.3598 41.18 81.0098 39.7 81.0098 37.7V23.34H80.7299C79.3099 23.34 78.1999 23.03 77.3799 22.39C76.5799 21.76 76.1599 20.91 76.1599 19.83C76.1599 18.75 76.5599 17.87 77.3799 17.26C78.1799 16.66 79.3998 16.31 81.0198 16.23V12.66C81.0198 10.66 81.3498 9.18 82.0298 8.21C82.6898 7.24 83.7198 6.75 85.0798 6.75M247.86 15.09C251.73 15.09 254.73 16.39 257.25 18.98C259.77 21.58 261.04 24.75 261.04 28.51C261.04 29.73 260.77 30.59 260.21 31.08C259.65 31.57 258.6 31.81 257.03 31.81H242.58C242.76 33.35 243.38 34.53 244.46 35.4C245.52 36.25 246.93 36.68 248.7 36.68C250.21 36.68 251.91 36.24 253.78 35.37C255.64 34.49 256.79 34.04 257.22 34.04C258.17 34.04 258.95 34.34 259.55 34.92C260.15 35.51 260.45 36.26 260.45 37.18C260.45 38.92 259.24 40.49 256.82 41.89C254.4 43.29 251.55 43.98 248.28 43.98C244.29 43.98 240.96 42.62 238.28 39.89C235.61 37.16 234.27 33.74 234.27 29.61C234.27 25.48 235.57 22.01 238.16 19.26C240.76 16.49 243.99 15.11 247.86 15.11M242.48 26.54H253.15C253.06 25.17 252.5 24.02 251.49 23.1C250.48 22.18 249.29 21.72 247.9 21.72C246.51 21.72 245.36 22.16 244.37 23.02C243.39 23.9 242.75 25.07 242.46 26.53M108.45 15.11C112.32 15.11 115.32 16.41 117.84 19C120.36 21.6 121.63 24.77 121.63 28.53C121.63 29.75 121.36 30.61 120.8 31.1C120.26 31.59 119.19 31.83 117.62 31.83H103.17C103.36 33.37 103.97 34.55 105.05 35.42C106.11 36.27 107.53 36.7 109.29 36.7C110.8 36.7 112.5 36.26 114.37 35.39C116.23 34.51 117.38 34.06 117.81 34.06C118.76 34.06 119.54 34.36 120.14 34.94C120.74 35.53 121.04 36.28 121.04 37.2C121.04 38.94 119.83 40.51 117.41 41.91C114.98 43.31 112.14 44 108.87 44C104.88 44 101.55 42.64 98.8699 39.91C96.1899 37.18 94.8599 33.76 94.8599 29.63C94.8599 25.5 96.1599 22.03 98.7499 19.28C101.34 16.51 104.58 15.13 108.45 15.13M103.08 26.56H113.75C113.66 25.19 113.1 24.04 112.09 23.12C111.08 22.2 109.89 21.74 108.5 21.74C107.11 21.74 105.96 22.18 104.97 23.04C103.99 23.92 103.35 25.09 103.07 26.55M174.04 15.23C175.41 15.23 176.62 15.47 177.68 15.93C178.74 16.4 179.68 17.13 180.5 18.12C180.97 17.27 181.53 16.62 182.18 16.18C182.83 15.74 183.55 15.53 184.36 15.53C185.71 15.53 186.71 16 187.37 16.96C188.02 17.92 188.35 19.4 188.35 21.41V37.73C188.35 39.73 188.02 41.21 187.36 42.18C186.7 43.15 185.7 43.64 184.37 43.64C183.47 43.64 182.71 43.42 182.09 42.97C181.48 42.52 180.95 41.82 180.53 40.85C179.71 41.86 178.72 42.62 177.56 43.14C176.4 43.67 175.13 43.93 173.76 43.93C170.3 43.93 167.39 42.57 165.03 39.84C162.67 37.11 161.48 33.7 161.48 29.61C161.48 25.52 162.7 22.17 165.14 19.4C167.58 16.63 170.55 15.25 174.06 15.25M175.1 36.16C176.65 36.16 177.87 35.54 178.83 34.31C179.8 33.08 180.29 31.48 180.29 29.52C180.29 27.56 179.8 26.05 178.82 24.85C177.84 23.64 176.61 23.04 175.1 23.04C173.59 23.04 172.31 23.64 171.33 24.84C170.35 26.04 169.86 27.6 169.86 29.53C169.86 31.46 170.35 33.13 171.32 34.35C172.29 35.57 173.56 36.17 175.11 36.17M277.98 15.44C279.09 15.44 280.06 15.84 280.87 16.64C281.67 17.43 282.09 18.38 282.09 19.47C282.09 21.09 280.6 22.45 277.63 23.54C276.57 23.93 275.76 24.24 275.23 24.5C274.21 24.99 273.54 25.53 273.19 26.12C272.86 26.71 272.69 27.79 272.69 29.35V37.8C272.69 39.8 272.36 41.28 271.68 42.25C271.02 43.22 270 43.71 268.63 43.71C267.26 43.71 266.24 43.22 265.59 42.25C264.93 41.28 264.6 39.8 264.6 37.8H264.61V21.47C264.61 19.47 264.94 18 265.6 17.03C266.26 16.07 267.27 15.59 268.64 15.59C269.46 15.59 270.18 15.8 270.82 16.23C271.46 16.66 272.02 17.31 272.5 18.18C273.34 17.28 274.22 16.59 275.15 16.13C276.08 15.67 277.03 15.44 277.98 15.44ZM220.7 15.44C223.89 15.44 226.33 16.35 228.01 18.19C229.69 20.01 230.54 22.67 230.54 26.15V37.79C230.54 39.79 230.21 41.27 229.53 42.24C228.87 43.21 227.85 43.7 226.48 43.7C225.11 43.7 224.09 43.21 223.43 42.24C222.77 41.27 222.42 39.79 222.42 37.79V28.62C222.42 26.36 222.08 24.75 221.4 23.78C220.73 22.82 219.61 22.34 218.05 22.34C216.58 22.34 215.49 22.84 214.8 23.83C214.1 24.82 213.75 26.39 213.75 28.52V37.8C213.75 39.8 213.42 41.28 212.74 42.25C212.08 43.22 211.06 43.71 209.69 43.71C208.32 43.71 207.3 43.22 206.65 42.25C205.99 41.28 205.66 39.8 205.66 37.8H205.67V21.47C205.67 19.47 206 18 206.66 17.03C207.32 16.07 208.33 15.59 209.7 15.59C210.52 15.59 211.24 15.8 211.88 16.23C212.52 16.66 213.08 17.31 213.56 18.18C214.42 17.22 215.43 16.54 216.57 16.1C217.71 15.66 219.08 15.45 220.7 15.45M137.72 15.45C138.84 15.45 139.8 15.85 140.62 16.65C141.42 17.44 141.84 18.39 141.84 19.48C141.84 21.1 140.35 22.46 137.38 23.55C136.32 23.94 135.51 24.25 134.98 24.51C133.96 25 133.29 25.54 132.96 26.13C132.63 26.72 132.46 27.8 132.46 29.36V37.81C132.46 39.81 132.13 41.29 131.45 42.26C130.77 43.23 129.76 43.72 128.4 43.72C127.04 43.72 126.02 43.23 125.36 42.26C124.7 41.29 124.37 39.81 124.37 37.81H124.36V21.48C124.36 19.48 124.69 18.01 125.35 17.04C126.01 16.08 127.02 15.6 128.39 15.6C129.21 15.6 129.94 15.81 130.57 16.24C131.21 16.67 131.77 17.32 132.25 18.19C133.09 17.29 133.97 16.6 134.9 16.14C135.83 15.68 136.78 15.45 137.73 15.45M64.2299 15.45C67.4199 15.45 69.8599 16.36 71.5399 18.2C73.2199 20.02 74.0698 22.68 74.0698 26.16V37.8C74.0698 39.8 73.7399 41.28 73.0599 42.25C72.3999 43.22 71.3698 43.71 70.0098 43.71C68.6498 43.71 67.6198 43.22 66.9598 42.25C66.2998 41.28 65.9498 39.8 65.9498 37.8V28.63C65.9498 26.37 65.6099 24.76 64.9299 23.79C64.2599 22.83 63.1398 22.35 61.5798 22.35C60.1098 22.35 59.0198 22.85 58.3298 23.84C57.6298 24.83 57.2798 26.4 57.2798 28.53V37.81C57.2798 39.81 56.9498 41.29 56.2698 42.26C55.6098 43.23 54.5898 43.72 53.2198 43.72C51.8498 43.72 50.8299 43.23 50.1799 42.26C49.5199 41.29 49.1899 39.81 49.1899 37.81H49.1998V21.48C49.1998 19.48 49.5299 18.01 50.1899 17.04C50.8499 16.08 51.8599 15.6 53.2299 15.6C54.0499 15.6 54.7699 15.81 55.4099 16.24C56.0499 16.67 56.6098 17.32 57.0898 18.19C57.9498 17.23 58.9599 16.55 60.0999 16.11C61.2399 15.67 62.6099 15.46 64.2299 15.46M197.24 15.6C198.62 15.6 199.59 16.09 200.25 17.04C200.9 18 201.23 19.48 201.23 21.48V37.8C201.23 39.81 200.9 41.3 200.25 42.26C199.6 43.22 198.59 43.7 197.24 43.7C195.89 43.7 194.85 43.21 194.19 42.24C193.52 41.27 193.18 39.79 193.18 37.79V21.47C193.18 19.47 193.51 18 194.17 17.03C194.83 16.06 195.85 15.59 197.23 15.59M18.8499 20.26C19.7399 20.26 20.3898 20.41 20.8298 20.71C21.2598 21.01 21.4799 21.46 21.4799 22.07C21.4799 22.68 21.2698 23.13 20.8298 23.43C20.3998 23.73 19.7399 23.88 18.8499 23.88H14.7798C13.7698 23.88 13.0598 24.03 12.6398 24.33C12.2198 24.63 11.9999 25.12 11.9999 25.82C11.9999 26.47 12.2199 26.96 12.6599 27.26C13.0999 27.56 13.7999 27.73 14.7399 27.73H18.8499C19.7399 27.73 20.3898 27.88 20.8298 28.18C21.2598 28.48 21.4799 28.93 21.4799 29.54C21.4799 30.15 21.2698 30.6 20.8298 30.89C20.3998 31.19 19.7399 31.33 18.8499 31.33H6.51984C5.62984 31.33 4.96985 31.19 4.52985 30.89C4.09985 30.59 3.87988 30.14 3.87988 29.54C3.87988 28.94 4.09986 28.48 4.53986 28.18C4.97986 27.88 5.63984 27.73 6.51984 27.73H10.0798C9.67983 27.33 9.38983 26.9 9.19983 26.43C9.01983 25.96 8.92987 25.35 8.92987 24.63C8.92987 23.21 9.32984 22.12 10.1498 21.38C10.9498 20.63 12.1399 20.26 13.6899 20.26H18.8499ZM6.82983 32.1C7.41983 32.1 7.81986 32.31 8.10986 32.75C8.38986 33.19 8.53986 33.84 8.53986 34.73V36.1H18.9099C19.7999 36.1 20.4498 36.25 20.8898 36.56C21.3198 36.87 21.5399 37.33 21.5399 37.96C21.5399 38.59 21.3298 39.05 20.8898 39.36C20.4598 39.67 19.7999 39.82 18.9099 39.82H8.53986V41.17C8.53986 42.06 8.39986 42.72 8.10986 43.16C7.82986 43.59 7.39983 43.81 6.82983 43.81C6.25983 43.81 5.79984 43.6 5.51984 43.16C5.23984 42.72 5.08984 42.07 5.08984 41.18V34.74C5.08984 33.86 5.22984 33.2 5.51984 32.76C5.79984 32.32 6.23983 32.1 6.82983 32.1ZM197.22 1.04C195.15 1.04 193.27 1.82 191.79 3.31C190.4 4.7 189.62 6.46 189.54 8.41C189.53 8.52 189.52 8.63 189.52 8.75C189.52 10.85 190.29 12.73 191.75 14.19C191.91 14.35 192.07 14.49 192.23 14.63C192.02 14.86 191.83 15.1 191.68 15.33C191.31 15.87 191.02 16.47 190.78 17.14C190.55 16.46 190.25 15.85 189.88 15.3C188.68 13.53 186.72 12.55 184.39 12.55C182.98 12.55 181.68 12.94 180.53 13.71C180.43 13.77 180.34 13.84 180.25 13.91C179.83 13.64 179.39 13.41 178.94 13.21C177.47 12.57 175.84 12.25 174.07 12.25C170.02 12.25 166.51 13.72 163.63 16.64C163.21 15.94 162.63 15.33 161.93 14.82C161.03 14.18 159.96 13.74 158.73 13.5V12.73C158.73 10.09 158.23 8.08 157.21 6.58C156.35 5.32 154.69 3.81 151.71 3.81C149.36 3.81 147.39 4.79 146.17 6.58C145.15 8.05 144.64 10.07 144.64 12.73V13.74C143.95 13.94 143.33 14.2 142.78 14.53C142.76 14.51 142.75 14.5 142.73 14.48C141.34 13.13 139.61 12.42 137.72 12.42C136.3 12.42 134.9 12.76 133.56 13.42C133.23 13.58 132.91 13.76 132.59 13.97C132.47 13.88 132.35 13.79 132.23 13.71C131.14 12.97 129.8 12.57 128.38 12.57C125.39 12.57 123.73 14.06 122.86 15.31C122.21 16.26 121.78 17.4 121.54 18.76C121.08 18.14 120.57 17.54 120.02 16.96C116.87 13.72 113.09 12.15 108.46 12.15C103.83 12.15 100.14 13.7 97.0599 16.75C96.6299 16 96.0299 15.35 95.2899 14.81C94.3999 14.17 93.3299 13.73 92.0999 13.49V12.72C92.0999 10.08 91.5998 8.07 90.5798 6.57C89.7198 5.31 88.0598 3.8 85.0798 3.8C82.7298 3.8 80.7599 4.78 79.5399 6.57C78.5199 8.04 78.0098 10.06 78.0098 12.72V13.73C77.0698 14 76.2598 14.39 75.5698 14.91C74.9598 15.36 74.4598 15.9 74.0698 16.52C73.9598 16.39 73.8399 16.26 73.7299 16.13C71.4699 13.67 68.2698 12.42 64.2098 12.42C62.1898 12.42 60.4899 12.7 58.9999 13.27C58.4699 13.47 57.9599 13.72 57.4698 14C57.3398 13.9 57.1999 13.8 57.0599 13.7C55.9199 12.94 54.6298 12.56 53.2098 12.56C51.2898 12.56 49.9198 13.17 48.9498 13.94C49.4298 13.09 49.7698 12.01 49.7698 10.64C49.7698 8.32 48.7699 6.38 46.9399 5.17C45.4199 4.18 43.4298 3.7 40.8398 3.7H31.4899C28.5099 3.7 26.3599 4.39 24.9199 5.82C24.3899 6.34 23.9699 6.96 23.6299 7.68C23.5299 7.47 23.4199 7.26 23.2999 7.05C21.7899 4.45 19.9098 3.91 18.5898 3.91C18.0498 3.91 17.5299 4 17.0499 4.18C16.4799 3.88 15.7298 3.67 14.7698 3.67C12.3298 3.67 10.1399 4.55 8.43988 6.21C6.68988 7.92 5.80988 10.05 5.80988 12.54C5.80988 15.03 6.70985 17.18 8.40985 18.87C8.29985 18.96 8.18983 19.06 8.07983 19.16C7.08983 20.06 5.89984 21.75 5.89984 24.62C5.89984 24.66 5.89984 24.69 5.89984 24.73C4.67984 24.81 3.64983 25.12 2.82983 25.68C1.56983 26.53 0.839844 27.94 0.839844 29.53C0.839844 30.85 1.33986 32.04 2.22986 32.9C2.10986 33.45 2.04987 34.06 2.04987 34.73V41.17C2.04987 42.66 2.34984 43.84 2.95984 44.78C3.78984 46.07 5.18987 46.8 6.79987 46.8C8.40987 46.8 9.73983 46.07 10.5798 44.81C10.9598 44.23 11.2199 43.57 11.3599 42.81H18.8599C20.4099 42.81 21.6399 42.47 22.5999 41.78C22.7899 41.65 22.9599 41.5 23.1299 41.35C23.4799 42.64 24.0799 43.67 24.9299 44.44C26.3199 45.71 28.4398 46.33 31.3898 46.33H41.0798C43.7098 46.33 45.7098 45.85 47.1998 44.88C47.4598 44.71 47.7099 44.52 47.9399 44.32C49.1499 45.86 50.9999 46.7 53.1899 46.7C55.5399 46.7 57.5099 45.72 58.7299 43.93C59.7499 42.46 60.2598 40.44 60.2598 37.78V28.5C60.2598 26.37 60.6798 25.66 60.7698 25.54C60.8098 25.49 60.9199 25.33 61.5599 25.33C62.1399 25.33 62.4098 25.44 62.4498 25.5C62.4898 25.56 62.9199 26.24 62.9199 28.61V37.78C62.9199 40.41 63.4198 42.42 64.4498 43.93C65.6698 45.71 67.6399 46.7 69.9899 46.7C72.3399 46.7 74.3098 45.72 75.5298 43.93C76.5498 42.46 77.0599 40.44 77.0599 37.78V26.14C77.0599 26 77.0599 25.86 77.0599 25.72C77.3599 25.85 77.6799 25.96 77.9999 26.05V37.76C77.9999 40.39 78.4998 42.4 79.5298 43.91C80.7498 45.69 82.7098 46.68 85.0698 46.68C87.4298 46.68 89.3798 45.7 90.5898 43.92C91.5998 42.43 92.0898 40.42 92.0898 37.77V32.78C92.6498 36.37 94.1999 39.48 96.7299 42.07C99.9799 45.39 104.06 47.07 108.88 47.07C112.67 47.07 116.05 46.23 118.92 44.57C120.24 43.81 121.24 43 121.99 42.2C122.22 42.85 122.51 43.43 122.86 43.95C124.08 45.73 126.04 46.72 128.39 46.72C130.74 46.72 132.68 45.74 133.91 43.97C134.95 42.48 135.45 40.46 135.45 37.8V29.35C135.45 28.34 135.53 27.83 135.58 27.61C135.68 27.53 135.88 27.39 136.26 27.21C136.72 26.98 137.56 26.67 138.4 26.36C139.78 25.86 140.94 25.27 141.87 24.61C141.96 24.69 142.05 24.76 142.14 24.83C142.85 25.39 143.69 25.8 144.63 26.07V37.77C144.63 40.42 145.14 42.44 146.17 43.94C147.37 45.7 149.34 46.69 151.69 46.69C154.04 46.69 156 45.71 157.21 43.93C158.22 42.44 158.71 40.43 158.71 37.78V32.95C159.23 36.36 160.58 39.34 162.75 41.85C165.7 45.26 169.4 46.98 173.76 46.98C175.57 46.98 177.27 46.62 178.81 45.91C179.25 45.71 179.67 45.49 180.07 45.24C180.15 45.3 180.23 45.37 180.31 45.43C181.48 46.27 182.84 46.68 184.37 46.68C186.68 46.68 188.63 45.7 189.85 43.91C190.22 43.37 190.52 42.76 190.75 42.08C190.99 42.78 191.3 43.4 191.68 43.95C192.88 45.71 194.85 46.7 197.2 46.7C199.55 46.7 201.49 45.72 202.69 43.94C202.97 43.53 203.21 43.07 203.41 42.58C203.61 43.08 203.86 43.53 204.14 43.95C205.33 45.73 207.3 46.72 209.67 46.72C212.04 46.72 213.99 45.74 215.21 43.95C216.23 42.48 216.74 40.46 216.74 37.8V28.52C216.74 26.39 217.16 25.68 217.25 25.56C217.29 25.51 217.4 25.35 218.04 25.35C218.62 25.35 218.89 25.46 218.93 25.52C218.97 25.58 219.4 26.26 219.4 28.63V37.8C219.4 40.43 219.9 42.44 220.93 43.95C222.15 45.73 224.12 46.72 226.47 46.72C228.82 46.72 230.79 45.74 232.01 43.95C232.92 42.64 233.42 40.9 233.52 38.66C234.22 39.88 235.09 41.02 236.12 42.07C239.37 45.39 243.45 47.07 248.27 47.07C252.06 47.07 255.44 46.23 258.31 44.57C260.04 43.58 261.21 42.51 261.99 41.46C262.24 42.41 262.61 43.23 263.09 43.94C264.28 45.72 266.25 46.71 268.62 46.71C270.99 46.71 272.94 45.73 274.16 43.94C275.18 42.47 275.69 40.45 275.69 37.79V29.34C275.69 28.34 275.77 27.83 275.82 27.61C275.92 27.53 276.13 27.38 276.51 27.2C276.97 26.97 277.81 26.66 278.65 26.35C282.92 24.79 285.08 22.47 285.08 19.45C285.08 17.56 284.35 15.84 282.96 14.48C281.59 13.13 279.86 12.42 277.96 12.42C276.54 12.42 275.14 12.76 273.8 13.42C273.47 13.58 273.15 13.76 272.83 13.97C272.71 13.88 272.59 13.79 272.47 13.71C271.33 12.95 270.04 12.57 268.62 12.57C265.63 12.57 263.97 14.06 263.1 15.31C262.29 16.49 261.81 17.98 261.64 19.84C261.01 18.82 260.26 17.87 259.39 16.97C256.24 13.73 252.46 12.16 247.83 12.16C243.2 12.16 239.12 13.88 235.94 17.26C234.72 18.55 233.74 19.98 232.99 21.52C232.46 19.39 231.52 17.59 230.19 16.14C227.93 13.68 224.73 12.43 220.67 12.43C218.65 12.43 216.95 12.71 215.46 13.28C214.93 13.48 214.42 13.73 213.93 14.01C213.8 13.91 213.66 13.81 213.52 13.71C212.38 12.95 211.09 12.57 209.67 12.57C206.68 12.57 205.02 14.06 204.15 15.31C203.86 15.74 203.61 16.2 203.41 16.71C203.21 16.21 202.97 15.75 202.68 15.33C202.52 15.09 202.33 14.85 202.11 14.6C202.27 14.47 202.42 14.32 202.57 14.17C204.03 12.69 204.79 10.82 204.79 8.73C204.79 6.64 204.03 4.8 202.59 3.32C201.13 1.82 199.26 1.03 197.18 1.03L197.22 1.04ZM37.1099 17.52H40.8699C43.4699 17.52 45.4698 17.05 46.9598 16.07C47.1298 15.96 47.2999 15.84 47.4799 15.7C46.8399 16.77 46.4499 18.08 46.2899 19.65C46.2099 19.59 46.1198 19.53 46.0298 19.48C44.5398 18.51 42.5399 18.03 39.9399 18.03H37.1199V17.52H37.1099ZM22.5798 18.27C22.6498 18.19 22.7098 18.11 22.7698 18.03V18.41C22.7098 18.36 22.6398 18.31 22.5798 18.27ZM22.6699 25.81C22.6699 25.81 22.7398 25.76 22.7698 25.73V25.88C22.7698 25.88 22.6999 25.83 22.6699 25.8V25.81ZM175.12 33.17C174.48 33.17 174.08 32.98 173.69 32.48C173.15 31.8 172.89 30.84 172.89 29.54C172.89 28.31 173.15 27.41 173.67 26.76C174.07 26.27 174.51 26.06 175.12 26.06C175.62 26.06 176.03 26.18 176.5 26.76C176.87 27.21 177.29 27.94 177.29 29.53C177.29 30.81 177.03 31.77 176.48 32.46C176.07 32.98 175.72 33.16 175.12 33.16V33.17ZM92.1099 26.23C92.1099 26.23 92.1399 26.23 92.1599 26.23C92.1399 26.34 92.1299 26.44 92.1099 26.55V26.24V26.23ZM158.74 26.23C158.74 26.23 158.76 26.23 158.77 26.23C158.77 26.29 158.75 26.35 158.74 26.4V26.23ZM37.1199 31.77H39.9399C42.5299 31.77 44.5098 31.31 46.0098 30.35C46.0698 30.31 46.1398 30.27 46.1998 30.23V33.51C44.8598 32.91 43.1799 32.62 41.1299 32.62H37.1199V31.77ZM22.5198 33.4C22.6098 33.34 22.6999 33.27 22.7899 33.21V34.24C22.7899 34.24 22.6998 34.17 22.6498 34.14C22.4298 33.99 22.1998 33.85 21.9598 33.73C22.1498 33.63 22.3398 33.52 22.5198 33.4Z" fill="#0D5D9C"/>
<path d="M40.8899 6.68C42.8499 6.68 44.3299 7 45.3299 7.65C46.3099 8.3 46.8099 9.28 46.8099 10.61C46.8099 11.94 46.3199 12.86 45.3399 13.5C44.3599 14.14 42.8799 14.46 40.8899 14.46H34.1199V20.99H39.9499C41.9399 20.99 43.4199 21.31 44.3999 21.95C45.3799 22.59 45.8699 23.56 45.8699 24.86C45.8699 26.16 45.3799 27.13 44.3999 27.76C43.4199 28.39 41.9399 28.71 39.9499 28.71H34.1199V35.57H41.1399C43.1399 35.57 44.6299 35.89 45.5999 36.53C46.5699 37.17 47.0599 38.13 47.0599 39.42C47.0599 40.71 46.5699 41.7 45.5999 42.33C44.6299 42.97 43.1499 43.29 41.1399 43.29H31.4499C29.2999 43.29 27.8199 42.92 27.0099 42.19C26.2099 41.46 25.7999 40.07 25.7999 38.04V12.55C25.7999 10.33 26.2299 8.79 27.0799 7.95C27.9299 7.11 29.4199 6.7 31.5399 6.7H40.8899V6.68ZM49.2199 37.73V21.41C49.2199 19.41 49.5499 17.94 50.2099 16.97C50.8699 16.01 51.8799 15.53 53.2499 15.53C54.0699 15.53 54.7899 15.74 55.4299 16.17C56.0699 16.6 56.6299 17.25 57.1099 18.12C57.9699 17.16 58.9799 16.48 60.1199 16.04C61.2599 15.6 62.6299 15.39 64.2499 15.39C67.4399 15.39 69.8799 16.3 71.5599 18.14C73.2399 19.96 74.0899 22.62 74.0899 26.1V37.74C74.0899 39.74 73.7599 41.22 73.0799 42.19C72.4199 43.16 71.3899 43.65 70.0299 43.65C68.6699 43.65 67.6399 43.16 66.9799 42.19C66.3199 41.22 65.9699 39.74 65.9699 37.74V28.57C65.9699 26.31 65.6299 24.7 64.9499 23.73C64.2799 22.77 63.1599 22.29 61.5999 22.29C60.1299 22.29 59.0399 22.79 58.3499 23.78C57.6499 24.77 57.2999 26.34 57.2999 28.47V37.75C57.2999 39.75 56.9699 41.23 56.2899 42.2C55.6299 43.17 54.6099 43.66 53.2399 43.66C51.8699 43.66 50.8499 43.17 50.1999 42.2C49.5399 41.23 49.2099 39.75 49.2099 37.75H49.2199V37.73ZM81.0599 23.35H80.7599C79.3399 23.35 78.2299 23.04 77.4099 22.4C76.6099 21.77 76.1899 20.92 76.1899 19.84C76.1899 18.76 76.5899 17.88 77.4099 17.27C78.2099 16.67 79.4299 16.32 81.0499 16.24V12.67C81.0499 10.67 81.3799 9.19 82.0599 8.22C82.7199 7.25 83.7499 6.76 85.1099 6.76C86.4699 6.76 87.4599 7.25 88.1299 8.22C88.7899 9.19 89.1199 10.67 89.1199 12.67V16.24H89.8199C91.4199 16.24 92.6699 16.56 93.5599 17.2C94.4499 17.84 94.8999 18.71 94.8999 19.84C94.8999 20.97 94.4699 21.86 93.6099 22.45C92.7499 23.04 91.4699 23.33 89.7599 23.33H89.1099V37.71C89.1099 39.72 88.7799 41.21 88.1299 42.17C87.4799 43.13 86.4699 43.61 85.0999 43.61C83.7299 43.61 82.7099 43.12 82.0499 42.15C81.3899 41.18 81.0399 39.7 81.0399 37.7V23.32H81.0499L81.0599 23.35ZM103.22 31.85C103.41 33.38 104.02 34.56 105.1 35.42C106.16 36.27 107.58 36.7 109.34 36.7C110.85 36.7 112.55 36.26 114.42 35.39C116.28 34.51 117.43 34.06 117.86 34.06C118.81 34.06 119.59 34.36 120.19 34.94C120.79 35.53 121.09 36.28 121.09 37.2C121.09 38.94 119.88 40.51 117.46 41.91C115.03 43.31 112.19 44 108.92 44C104.93 44 101.6 42.64 98.9199 39.91C96.2499 37.18 94.9099 33.76 94.9099 29.63C94.9099 25.5 96.2099 22.03 98.7999 19.28C101.39 16.51 104.63 15.13 108.5 15.13C112.37 15.13 115.37 16.43 117.89 19.02C120.41 21.62 121.68 24.79 121.68 28.55C121.68 29.77 121.41 30.63 120.85 31.12C120.31 31.61 119.24 31.85 117.67 31.85H103.22ZM103.13 26.55H113.8C113.71 25.18 113.15 24.03 112.14 23.11C111.13 22.19 109.94 21.73 108.55 21.73C107.16 21.73 106.01 22.17 105.02 23.03C104.04 23.91 103.4 25.08 103.11 26.54L103.13 26.55ZM124.38 37.73V21.41C124.38 19.41 124.71 17.94 125.37 16.97C126.03 16.01 127.04 15.53 128.41 15.53C129.23 15.53 129.96 15.74 130.59 16.17C131.23 16.6 131.79 17.25 132.27 18.12C133.11 17.22 133.99 16.53 134.92 16.07C135.85 15.61 136.8 15.38 137.75 15.38C138.87 15.38 139.83 15.78 140.65 16.58C141.45 17.37 141.87 18.32 141.87 19.41C141.87 21.03 140.38 22.39 137.41 23.48C136.35 23.87 135.54 24.18 135.01 24.44C133.99 24.93 133.32 25.47 132.99 26.06C132.66 26.65 132.49 27.73 132.49 29.29V37.74C132.49 39.74 132.16 41.22 131.48 42.19C130.81 43.16 129.79 43.65 128.43 43.65C127.07 43.65 126.05 43.16 125.39 42.19C124.73 41.22 124.4 39.74 124.4 37.74H124.39L124.38 37.73ZM147.68 23.35H147.38C145.96 23.35 144.85 23.04 144.03 22.4C143.23 21.77 142.81 20.92 142.81 19.84C142.81 18.76 143.21 17.88 144.03 17.27C144.83 16.67 146.05 16.32 147.67 16.24V12.67C147.67 10.67 148 9.19 148.68 8.22C149.34 7.25 150.36 6.76 151.73 6.76C153.1 6.76 154.08 7.25 154.75 8.22C155.41 9.19 155.74 10.67 155.74 12.67V16.24H156.44C158.05 16.24 159.29 16.56 160.19 17.2C161.08 17.84 161.53 18.71 161.53 19.84C161.53 20.97 161.1 21.86 160.24 22.45C159.38 23.04 158.1 23.33 156.39 23.33H155.74V37.71C155.74 39.72 155.41 41.21 154.76 42.17C154.11 43.13 153.1 43.61 151.73 43.61C150.36 43.61 149.34 43.12 148.68 42.15C148.01 41.18 147.67 39.7 147.67 37.7V23.32L147.68 23.35ZM180.57 40.81C179.75 41.82 178.76 42.58 177.6 43.11C176.44 43.64 175.17 43.9 173.8 43.9C170.34 43.9 167.43 42.54 165.07 39.81C162.7 37.08 161.52 33.67 161.52 29.58C161.52 25.49 162.74 22.14 165.18 19.37C167.62 16.6 170.59 15.22 174.1 15.22C175.47 15.22 176.68 15.46 177.74 15.92C178.8 16.39 179.74 17.12 180.56 18.11C181.03 17.26 181.59 16.61 182.24 16.17C182.89 15.73 183.61 15.52 184.42 15.52C185.77 15.52 186.77 15.99 187.43 16.95C188.08 17.91 188.41 19.39 188.41 21.4V37.72C188.41 39.72 188.08 41.2 187.42 42.17C186.76 43.14 185.76 43.63 184.43 43.63C183.53 43.63 182.77 43.41 182.15 42.96C181.53 42.51 181 41.8 180.58 40.82V40.84L180.57 40.81ZM169.9 29.47C169.9 31.47 170.39 33.07 171.36 34.29C172.33 35.51 173.6 36.11 175.15 36.11C176.7 36.11 177.92 35.49 178.88 34.26C179.85 33.03 180.34 31.43 180.34 29.47C180.34 27.51 179.85 26 178.87 24.8C177.89 23.59 176.66 22.99 175.15 22.99C173.64 22.99 172.36 23.59 171.38 24.79C170.4 25.99 169.91 27.55 169.91 29.48L169.9 29.47ZM192.57 8.68C192.57 7.39 193.03 6.28 193.94 5.37C194.86 4.45 195.96 3.99 197.24 3.99C198.52 3.99 199.59 4.45 200.49 5.37C201.39 6.29 201.84 7.39 201.84 8.68C201.84 9.97 201.39 11.09 200.5 11.99C199.6 12.89 198.51 13.35 197.23 13.35C195.95 13.35 194.8 12.9 193.89 11.99C192.99 11.09 192.54 9.98 192.54 8.68H192.55H192.57ZM201.24 37.72C201.24 39.73 200.91 41.22 200.26 42.18C199.61 43.14 198.6 43.62 197.25 43.62C195.9 43.62 194.86 43.13 194.2 42.16C193.53 41.19 193.19 39.71 193.19 37.71V21.39C193.19 19.39 193.52 17.92 194.18 16.95C194.84 15.98 195.86 15.51 197.24 15.51C198.62 15.51 199.59 16 200.25 16.95C200.9 17.91 201.23 19.39 201.23 21.39V37.71L201.24 37.72ZM205.7 37.72V21.4C205.7 19.4 206.03 17.93 206.69 16.96C207.35 16 208.36 15.52 209.73 15.52C210.55 15.52 211.27 15.73 211.91 16.16C212.55 16.59 213.11 17.24 213.59 18.11C214.45 17.15 215.46 16.47 216.6 16.03C217.74 15.59 219.11 15.38 220.73 15.38C223.92 15.38 226.36 16.29 228.04 18.13C229.72 19.95 230.57 22.61 230.57 26.09V37.73C230.57 39.73 230.24 41.21 229.56 42.18C228.9 43.15 227.88 43.64 226.51 43.64C225.14 43.64 224.12 43.15 223.46 42.18C222.8 41.21 222.45 39.73 222.45 37.73V28.56C222.45 26.3 222.11 24.69 221.43 23.72C220.76 22.76 219.64 22.28 218.08 22.28C216.61 22.28 215.52 22.78 214.83 23.77C214.13 24.76 213.78 26.33 213.78 28.46V37.74C213.78 39.74 213.45 41.22 212.77 42.19C212.11 43.16 211.09 43.65 209.72 43.65C208.35 43.65 207.33 43.16 206.68 42.19C206.02 41.22 205.69 39.74 205.69 37.74H205.7V37.72ZM242.62 31.84C242.8 33.37 243.42 34.55 244.5 35.41C245.56 36.26 246.97 36.69 248.74 36.69C250.25 36.69 251.95 36.25 253.82 35.38C255.68 34.5 256.83 34.05 257.26 34.05C258.21 34.05 258.99 34.35 259.59 34.93C260.19 35.52 260.49 36.27 260.49 37.19C260.49 38.93 259.28 40.5 256.86 41.9C254.43 43.3 251.59 43.99 248.32 43.99C244.33 43.99 241 42.63 238.32 39.9C235.65 37.17 234.31 33.75 234.31 29.62C234.31 25.49 235.61 22.02 238.2 19.27C240.8 16.5 244.03 15.12 247.9 15.12C251.77 15.12 254.77 16.42 257.29 19.01C259.81 21.61 261.08 24.78 261.08 28.54C261.08 29.76 260.81 30.62 260.25 31.11C259.69 31.6 258.64 31.84 257.07 31.84H242.62ZM242.51 26.54H253.18C253.09 25.17 252.53 24.02 251.52 23.1C250.51 22.18 249.32 21.72 247.93 21.72C246.54 21.72 245.39 22.16 244.4 23.02C243.42 23.9 242.78 25.07 242.49 26.53L242.51 26.54ZM264.64 37.72V21.4C264.64 19.4 264.97 17.93 265.63 16.96C266.29 16 267.3 15.52 268.67 15.52C269.49 15.52 270.21 15.73 270.85 16.16C271.49 16.59 272.05 17.24 272.53 18.11C273.37 17.21 274.25 16.52 275.18 16.06C276.11 15.6 277.06 15.37 278.01 15.37C279.12 15.37 280.09 15.77 280.9 16.57C281.7 17.36 282.12 18.31 282.12 19.4C282.12 21.02 280.63 22.38 277.66 23.47C276.6 23.86 275.79 24.17 275.26 24.43C274.24 24.92 273.57 25.46 273.22 26.05C272.89 26.64 272.72 27.72 272.72 29.28V37.73C272.72 39.73 272.39 41.21 271.71 42.18C271.05 43.15 270.03 43.64 268.66 43.64C267.29 43.64 266.27 43.15 265.62 42.18C264.96 41.21 264.63 39.73 264.63 37.73H264.64V37.72ZM8.54993 39.74V41.1C8.54993 41.99 8.40993 42.65 8.11993 43.09C7.83993 43.52 7.4099 43.74 6.8399 43.74C6.2699 43.74 5.80991 43.53 5.52991 43.09C5.24991 42.65 5.09991 42 5.09991 41.11V34.67C5.09991 33.79 5.23991 33.13 5.52991 32.69C5.80991 32.25 6.2499 32.03 6.8399 32.03C7.4299 32.03 7.82993 32.24 8.11993 32.68C8.39993 33.12 8.54993 33.77 8.54993 34.66V36.03H18.9199C19.8099 36.03 20.4599 36.18 20.8999 36.49C21.3299 36.8 21.5499 37.26 21.5499 37.89C21.5499 38.52 21.3399 38.98 20.8999 39.29C20.4699 39.6 19.8099 39.75 18.9199 39.75H8.54993V39.74ZM10.0999 27.66C9.69991 27.27 9.40991 26.84 9.21991 26.37C9.03991 25.9 8.94989 25.29 8.94989 24.57C8.94989 23.15 9.34992 22.06 10.1699 21.32C10.9699 20.57 12.1599 20.2 13.7099 20.2H18.8699C19.7599 20.2 20.4099 20.35 20.8499 20.65C21.2799 20.95 21.4999 21.4 21.4999 22.01C21.4999 22.62 21.2899 23.07 20.8499 23.37C20.4199 23.67 19.7599 23.82 18.8699 23.82H14.7999C13.7899 23.82 13.0799 23.97 12.6599 24.27C12.2299 24.57 12.0199 25.06 12.0199 25.76C12.0199 26.41 12.2399 26.9 12.6799 27.2C13.1199 27.51 13.8199 27.67 14.7599 27.67H18.8699C19.7599 27.67 20.4099 27.82 20.8499 28.12C21.2799 28.42 21.4999 28.87 21.4999 29.48C21.4999 30.09 21.2899 30.54 20.8499 30.83C20.4199 31.13 19.7599 31.27 18.8699 31.27H6.53992C5.64992 31.27 4.98993 31.13 4.54993 30.83C4.11993 30.53 3.8999 30.08 3.8999 29.48C3.8999 28.88 4.11994 28.42 4.55994 28.12C4.99994 27.82 5.65992 27.67 6.53992 27.67H10.0999V27.66ZM16.2599 14.83C16.9299 14.75 17.4699 14.48 17.8499 13.99C18.2299 13.52 18.4199 12.89 18.4199 12.11C18.4199 11.44 18.2199 10.68 17.8299 9.85C17.4399 9.02 17.2499 8.51 17.2499 8.32C17.2499 7.89 17.3799 7.55 17.6399 7.28C17.8999 7.01 18.2299 6.88 18.6499 6.88C19.4199 6.88 20.1199 7.42 20.7399 8.5C21.3599 9.58 21.6699 10.84 21.6699 12.3C21.6699 14.07 21.0699 15.55 19.8499 16.75C18.6399 17.93 17.1199 18.54 15.2899 18.54C13.4599 18.54 11.9299 17.96 10.6999 16.81C9.46989 15.65 8.86993 14.22 8.86993 12.49C8.86993 10.76 9.44991 9.44 10.5999 8.31C11.7499 7.19 13.1599 6.63 14.8199 6.63C15.3599 6.63 15.7399 6.75 15.9599 7C16.1699 7.25 16.2799 7.72 16.2799 8.42V14.86V14.84L16.2599 14.83ZM13.9099 14.88V10.14C13.3099 10.19 12.7999 10.44 12.3799 10.87C11.9699 11.32 11.7599 11.85 11.7599 12.47C11.7599 13.09 11.9499 13.61 12.3399 14.04C12.7299 14.48 13.2499 14.76 13.8999 14.89L13.9099 14.88Z" fill="white"/>
<path d="M306.52 4C307.67 4 308.75 4.25 309.58 4.89L326.21 17.25L338.19 8.2C339.4 7.24 340.93 6.29 342.78 6.29C345.39 6.29 347.56 8.46 347.56 11.7C347.56 13.42 346.67 14.89 344.88 16.16L334.81 23.49L344.3 30.31C346.34 31.78 347.55 33.24 347.55 35.34C347.55 38.59 345.32 40.69 342.77 40.69C340.86 40.69 339.39 39.67 338.18 38.78L326.2 29.73L311.8 40.5C310.27 41.58 308.87 42.98 306.51 42.98C303.45 42.98 301.41 40.75 301.41 37.95C301.41 35.85 302.3 34.51 304.34 33.04L317.34 23.48L304.66 14.18C302.3 12.46 301.41 11.12 301.41 9.02C301.41 6.15 303.64 3.99 306.51 3.99M306.51 0.98C301.97 0.98 298.4 4.51 298.4 9.02C298.4 12.82 300.56 14.91 302.88 16.61L312.25 23.48L302.55 30.61C300.63 31.99 298.39 34.09 298.39 37.94C298.39 42.52 301.87 45.98 306.5 45.98C309.48 45.98 311.43 44.51 312.85 43.44C313.07 43.27 313.3 43.1 313.52 42.94C313.54 42.92 313.56 42.91 313.58 42.89L326.17 33.48L336.34 41.16C337.64 42.12 339.76 43.68 342.74 43.68C347.11 43.68 350.53 40.01 350.53 35.32C350.53 31.52 347.96 29.23 346.03 27.84L339.92 23.45L346.62 18.57C349.85 16.26 350.53 13.55 350.53 11.68C350.53 6.88 347.18 3.26 342.74 3.26C339.88 3.26 337.71 4.7 336.32 5.8L326.17 13.47L311.35 2.46C310.1 1.5 308.41 0.970001 306.5 0.970001L306.51 0.98Z" fill="#8200DA"/>
<path d="M390.87 4.16C397.28 4.16 403.9 8.67 403.9 16.92C403.9 25.17 398.9 30.39 391.14 30.39L366.68 29.85V38.65C366.68 41.47 364.89 43.16 362.28 43.16C359.67 43.16 357.88 41.48 357.88 38.65V10.27C357.88 7.83 359.83 5.98 362.17 5.98L390.87 4.17M390.87 1.16C390.81 1.16 390.74 1.16 390.68 1.16L362.07 2.97C358.1 3.03 354.88 6.28 354.88 10.27V38.65C354.88 43.08 357.93 46.17 362.29 46.17C366.65 46.17 369.7 43.08 369.7 38.65V32.93L391.09 33.4C391.09 33.4 391.13 33.4 391.16 33.4C400.74 33.4 406.93 26.93 406.93 16.93C406.93 12.27 405.11 8.1 401.79 5.19C398.87 2.63 394.9 1.16 390.89 1.16H390.87Z" fill="#8200DA"/>
</svg>
